<?xml version="1.0" encoding="UTF-8" standalone="no"?>
<svg
   xmlns:dc="http://purl.org/dc/elements/1.1/"
   xmlns:cc="http://creativecommons.org/ns#"
   xmlns:rdf="http://www.w3.org/1999/02/22-rdf-syntax-ns#"
   xmlns:svg="http://www.w3.org/2000/svg"
   xmlns="http://www.w3.org/2000/svg"
   version="1.1"
   id="svg2"
   viewBox="0 0 40 40.000001"
   height="40"
   width="40">
  <defs
     id="defs4" />
  <metadata
     id="metadata7">
    <rdf:RDF>
      <cc:Work
         rdf:about="">
        <dc:format>image/svg+xml</dc:format>
        <dc:type
           rdf:resource="http://purl.org/dc/dcmitype/StillImage" />
        <dc:title></dc:title>
      </cc:Work>
    </rdf:RDF>
  </metadata>
  <g
     transform="translate(0,-1012.3622)"
     id="layer1">
    <path
       id="path4138"
       d="m 20,1052.3622 c 0,0 20,-10 20,-10 l -20,-10 -20,10 z"
       style="fill:#957681;fill-opacity:1;fill-rule:evenodd;stroke:none;stroke-width:1px;stroke-linecap:butt;stroke-linejoin:miter;stroke-opacity:1" />
    <path
       id="path4516"
       d="m 20,1037.3622 -6,-3 6,-3 6,3 z"
       style="fill:#d40000;fill-rule:evenodd;stroke:none;stroke-width:0.1;stroke-linecap:butt;stroke-linejoin:miter;stroke-miterlimit:4;stroke-dasharray:none;stroke-opacity:1" />
    <path
       id="path4518"
       d="m 16,1042.3622 4,2 4,-2 -4,-2 z"
       style="fill:none;fill-rule:evenodd;stroke:#000000;stroke-width:0.1;stroke-linecap:butt;stroke-linejoin:miter;stroke-opacity:1;stroke-miterlimit:4;stroke-dasharray:none" />
    <path
       id="path4520"
       d="m 14,1034.3622 2,8 4,2 0,-7 z"
       style="fill:#800000;fill-rule:evenodd;stroke:none;stroke-width:1px;stroke-linecap:butt;stroke-linejoin:miter;stroke-opacity:1" />
    <path
       id="path4524"
       d="m 20,1044.3622 4,-2 2,-8 -6,3 z"
       style="fill:#aa0000;fill-rule:evenodd;stroke:none;stroke-width:1px;stroke-linecap:butt;stroke-linejoin:miter;stroke-opacity:1" />
    <path
       id="path4528"
       d="m 16,1034.3622 4,-2 4,2 -4,2 z"
       style="fill:#803300;fill-rule:evenodd;stroke:none;stroke-width:1px;stroke-linecap:butt;stroke-linejoin:miter;stroke-opacity:1" />
    <path
       id="path4545"
       d="m 19,1034.3622 c -0.317217,-1.9293 -2.661558,-2.1423 -4.009679,-3.1227 -0.705117,-0.5128 -1.228324,-1.4656 -1.61053,-2.23 -0.795751,-1.5915 -0.514784,-3.6974 0.743322,-4.9555 0.33562,-0.3356 0.876708,-0.4604 1.300813,-0.6194 0.907617,-0.3404 1.76643,-0.3531 2.539682,0.3097 1.782058,1.5275 3.60402,7.0766 3.169211,9.2507 -0.222523,1.1126 -2.039101,0.1772 -2.132819,1.3672 z"
       style="fill:#165016;fill-rule:evenodd;stroke:none;stroke-width:1px;stroke-linecap:butt;stroke-linejoin:miter;stroke-opacity:1" />
    <path
       id="path4547"
       d="m 19.481807,1034.5374 c 0.150084,-0.215 -0.212954,-0.608 -0.07536,-0.8312 0.268673,-0.4358 0.293266,-3.6672 0.619434,-4.6457 0.212794,-0.6384 0.414957,-1.3292 0.743322,-1.9203 0.63899,-1.1502 2.96003,-3.5667 4.397987,-3.4069 1.459242,0.1622 2.581073,2.0715 1.982191,3.4688 -0.319049,0.7445 -0.788312,1.2395 -1.4247,1.7345 -1.280185,0.9957 -2.791608,1.655 -4.088269,2.6635 -0.705393,0.5487 -1.215402,1.2204 -1.672474,1.9822 -0.166248,0.2771 -0.287561,0.8451 -0.495548,1.0531 -0.01266,0.013 0.313469,-0.057 0.01341,-0.098 1.626961,-1.5363 2.075288,-3.7523 2.774044,-5.8486 0.38967,-1.169 0.939671,-2.4275 1.114982,-3.6547 0.324727,-2.2731 -0.344713,-4.7742 -1.858304,-6.504 -0.767892,-0.8776 -2.495853,-2.2738 -3.654665,-1.115 -0.619832,0.6198 -0.831498,1.5415 -1.053039,2.3538 -0.702888,2.5773 0.243593,5.1288 1.053039,7.5571 0.361121,1.0834 1.012224,2.0682 1.176926,3.2211 0.143933,1.0075 0.600538,2.1034 0.401721,3.0975 -0.03477,0.1739 -0.136892,0.4904 -0.06194,0.6814 0.02886,0.074 0.151067,0.1457 0.10724,0.2114 -0.4799,-0.104 -0.439967,-0.2672 0,0"
       style="fill:#005500;fill-rule:evenodd;stroke:none;stroke-width:1px;stroke-linecap:butt;stroke-linejoin:miter;stroke-opacity:1" />
    <path
       id="path4549"
       d="m 20.053039,1034.9816 c -0.680668,-1.7668 -1.9359,-3.2693 -2.95664,-4.8571 -1.272385,-1.9793 -3.650409,-6.4634 -3.159117,-8.9199 0.100528,-0.5026 0.659091,-0.6364 1.053039,-0.8053 1.639357,-0.7025 3.526348,-0.5537 4.769648,0.8672 2.985517,3.4121 1.778666,8.3712 0.805265,12.2648 -0.086,0.344 -0.136026,0.6559 -0.247774,0.9911 -0.08966,0.269 -0.05682,0.5585 -0.06194,0.5575 -0.07385,-0.013 -0.202481,-0.1733 -0.202481,-0.098 0,0.086 0.125047,0.1227 0.202478,0.1603 0.04153,0.02 0.103474,-0.1037 0.06194,-0.1239 -0.08003,-0.039 -0.176278,-0.024 -0.264418,-0.036"
       style="fill:#008000;fill-rule:evenodd;stroke:none;stroke-width:1px;stroke-linecap:butt;stroke-linejoin:miter;stroke-opacity:1" />
    <path
       id="path4551"
       d="m 19.122,1034.1188 c 0.864571,0.016 1.684159,-2.9418 1.813008,-3.6183 0.402776,-2.1145 0.692375,-5.337 0.557491,-7.4951 -0.155508,-2.4882 -0.688755,-3.8258 0.495548,-6.1944 0.907304,-1.8146 4.451181,-2.4865 5.946574,-0.9911 0.641298,0.6413 0.495548,2.0926 0.495548,2.9114 0,2.6805 -1.675048,4.9599 -2.973287,7.1854 -0.458694,0.7863 -0.777108,1.6677 -1.300813,2.4158 -0.689107,0.9844 -1.438235,1.9096 -2.106078,2.9113 -0.367352,0.5511 -0.594931,1.1774 -0.929152,1.7345 -0.343601,0.5726 -0.801719,1.1096 -1.176926,1.6724 -0.05743,0.086 -0.276913,0.2624 -0.371661,0.3098 -0.01955,0.01 -0.234375,0.013 -0.247774,0 -0.05264,-0.053 0.174787,-0.2402 0.123887,-0.1859 -0.108097,0.1154 0.121878,-0.2633 0.01309,-0.1486"
       style="fill:#00aa00;fill-rule:evenodd;stroke:none;stroke-width:1px;stroke-linecap:butt;stroke-linejoin:miter;stroke-opacity:1" />
    <path
       id="path4555"
       d="m 18.938057,1034.4861 c 0.240225,-0.674 0.484454,-1.3005 0.388308,-2.0697 -0.185575,-1.4846 -0.924763,-3.2077 -0.06194,-4.6457 1.584693,-2.6412 4.935153,-2.4404 7.247387,-1.0531 0.279585,0.1678 0.629557,0.2579 0.867208,0.4956 0.338777,0.3387 0.449461,0.9925 0.557491,1.4247 0.303543,1.2141 -0.08084,1.3323 -0.619434,2.2299 -1.105745,1.8429 -3.603636,2.6691 -5.451026,3.5927 -0.838359,0.4192 -1.448618,1.2266 -2.348806,0.7765 -0.301314,-0.1506 -0.517245,0.1252 -0.579188,-0.7509 z"
       style="fill:#165016;fill-rule:evenodd;stroke:none;stroke-width:1px;stroke-linecap:butt;stroke-linejoin:miter;stroke-opacity:1" />
  </g>
</svg>
